<svg xmlns="http://www.w3.org/2000/svg" viewBox="0 0 1440 320">
  <path fill="#3b82f6" fill-opacity="1" d="M0,96L30,106.7C60,117,120,139,180,128C240,117,300,75,360,80C420,85,480,139,540,181.3C600,224,660,256,720,256C780,256,840,224,900,208C960,192,1020,192,1080,213.3C1140,235,1200,277,1260,261.3C1320,245,1380,171,1410,133.3L1440,96L1440,320L1410,320C1380,320,1320,320,1260,320C1200,320,1140,320,1080,320C1020,320,960,320,900,320C840,320,780,320,720,320C660,320,600,320,540,320C480,320,420,320,360,320C300,320,240,320,180,320C120,320,60,320,30,320L0,320Z"></path>
</svg>
